<?xml version="1.0" encoding="UTF-8" standalone="no"?>
<!DOCTYPE svg PUBLIC "-//W3C//DTD SVG 1.1//EN"
 "http://www.w3.org/Graphics/SVG/1.1/DTD/svg11.dtd">
<!-- Generated by graphviz version 2.38.0 (20140413.2041)
 -->
<!-- Title: PetriNet Pages: 1 -->
<svg width="1359pt" height="320pt"
 viewBox="0.00 0.00 1359.44 320.01" xmlns="http://www.w3.org/2000/svg" xmlns:xlink="http://www.w3.org/1999/xlink">
<g id="graph0" class="graph" transform="scale(1 1) rotate(0) translate(4 316.009)">
<title>PetriNet</title>
<polygon fill="white" stroke="none" points="-4,4 -4,-316.009 1355.44,-316.009 1355.44,4 -4,4"/>
<!-- cif -->
<g id="node1" class="node"><title>cif</title>
<ellipse fill="none" stroke="black" cx="56.4089" cy="-236.634" rx="53.8181" ry="53.8181"/>
<text text-anchor="middle" x="56.4089" y="-240.834" font-family="Times,serif" font-size="14.00">AlphaFold</text>
<text text-anchor="middle" x="56.4089" y="-224.034" font-family="Times,serif" font-size="14.00">.cif files</text>
</g>
<!-- prep_cif -->
<g id="node2" class="node"><title>prep_cif</title>
<polygon fill="none" stroke="black" points="247.514,-257.236 148.919,-257.236 148.919,-216.032 247.514,-216.032 247.514,-257.236"/>
<text text-anchor="middle" x="198.216" y="-240.834" font-family="Times,serif" font-size="14.00">Extract local</text>
<text text-anchor="middle" x="198.216" y="-224.034" font-family="Times,serif" font-size="14.00">pLDDT scores</text>
</g>
<!-- cif&#45;&gt;prep_cif -->
<g id="edge1" class="edge"><title>cif&#45;&gt;prep_cif</title>
<path fill="none" stroke="black" d="M110.264,-236.634C119.577,-236.634 129.32,-236.634 138.775,-236.634"/>
<polygon fill="black" stroke="black" points="138.889,-240.134 148.888,-236.634 138.888,-233.134 138.889,-240.134"/>
</g>
<!-- plddt -->
<g id="node3" class="node"><title>plddt</title>
<ellipse fill="none" stroke="black" cx="355.249" cy="-236.634" rx="66.5912" ry="66.5912"/>
<text text-anchor="middle" x="355.249" y="-232.434" font-family="Times,serif" font-size="14.00">local pLDDTs</text>
</g>
<!-- prep_cif&#45;&gt;plddt -->
<g id="edge2" class="edge"><title>prep_cif&#45;&gt;plddt</title>
<path fill="none" stroke="black" d="M247.844,-236.634C257.501,-236.634 267.857,-236.634 278.178,-236.634"/>
<polygon fill="black" stroke="black" points="278.46,-240.134 288.46,-236.634 278.46,-233.134 278.46,-240.134"/>
</g>
<!-- filter -->
<g id="node4" class="node"><title>filter</title>
<polygon fill="none" stroke="black" points="516.883,-254.634 462.883,-254.634 462.883,-218.634 516.883,-218.634 516.883,-254.634"/>
<text text-anchor="middle" x="489.883" y="-232.434" font-family="Times,serif" font-size="14.00">Filter</text>
</g>
<!-- plddt&#45;&gt;filter -->
<g id="edge3" class="edge"><title>plddt&#45;&gt;filter</title>
<path fill="none" stroke="black" d="M422.177,-236.634C432.664,-236.634 443.164,-236.634 452.627,-236.634"/>
<polygon fill="black" stroke="black" points="452.816,-240.134 462.816,-236.634 452.816,-233.134 452.816,-240.134"/>
</g>
<!-- filtered_cif -->
<g id="node5" class="node"><title>filtered_cif</title>
<ellipse fill="none" stroke="black" cx="628.258" cy="-236.634" rx="75.2508" ry="75.2508"/>
<text text-anchor="middle" x="628.258" y="-240.834" font-family="Times,serif" font-size="14.00">Inferred IDPs</text>
<text text-anchor="middle" x="628.258" y="-224.034" font-family="Times,serif" font-size="14.00">from AlphaFold</text>
</g>
<!-- filter&#45;&gt;filtered_cif -->
<g id="edge4" class="edge"><title>filter&#45;&gt;filtered_cif</title>
<path fill="none" stroke="black" d="M517.177,-236.634C524.794,-236.634 533.549,-236.634 542.724,-236.634"/>
<polygon fill="black" stroke="black" points="542.811,-240.134 552.811,-236.634 542.811,-233.134 542.811,-240.134"/>
</g>
<!-- compare -->
<g id="node11" class="node"><title>compare</title>
<polygon fill="none" stroke="black" points="866.886,-171.634 739.549,-171.634 739.549,-135.634 866.886,-135.634 866.886,-171.634"/>
<text text-anchor="middle" x="803.218" y="-149.434" font-family="Times,serif" font-size="14.00">Compare &#45; Intersect</text>
</g>
<!-- filtered_cif&#45;&gt;compare -->
<g id="edge9" class="edge"><title>filtered_cif&#45;&gt;compare</title>
<path fill="none" stroke="black" d="M696.624,-204.306C716.171,-194.926 737.089,-184.888 755.108,-176.241"/>
<polygon fill="black" stroke="black" points="756.743,-179.339 764.244,-171.857 753.714,-173.028 756.743,-179.339"/>
</g>
<!-- uniprotkb -->
<g id="node6" class="node"><title>uniprotkb</title>
<ellipse fill="none" stroke="black" cx="56.4089" cy="-71.6338" rx="56.3179" ry="56.3179"/>
<text text-anchor="middle" x="56.4089" y="-75.8338" font-family="Times,serif" font-size="14.00">UniProtKB</text>
<text text-anchor="middle" x="56.4089" y="-59.0338" font-family="Times,serif" font-size="14.00">proteome</text>
</g>
<!-- aiupred -->
<g id="node7" class="node"><title>aiupred</title>
<polygon fill="none" stroke="black" points="231.25,-89.6338 165.183,-89.6338 165.183,-53.6338 231.25,-53.6338 231.25,-89.6338"/>
<text text-anchor="middle" x="198.216" y="-67.4338" font-family="Times,serif" font-size="14.00">AIUPred</text>
</g>
<!-- uniprotkb&#45;&gt;aiupred -->
<g id="edge5" class="edge"><title>uniprotkb&#45;&gt;aiupred</title>
<path fill="none" stroke="black" d="M113.066,-71.6338C127.006,-71.6338 141.735,-71.6338 154.907,-71.6338"/>
<polygon fill="black" stroke="black" points="155.092,-75.1339 165.092,-71.6338 155.092,-68.1339 155.092,-75.1339"/>
</g>
<!-- disorder_scores -->
<g id="node8" class="node"><title>disorder_scores</title>
<ellipse fill="none" stroke="black" cx="355.249" cy="-71.6338" rx="71.7679" ry="71.7679"/>
<text text-anchor="middle" x="355.249" y="-67.4338" font-family="Times,serif" font-size="14.00">disorder_scores</text>
</g>
<!-- aiupred&#45;&gt;disorder_scores -->
<g id="edge6" class="edge"><title>aiupred&#45;&gt;disorder_scores</title>
<path fill="none" stroke="black" d="M231.339,-71.6338C243.662,-71.6338 258.347,-71.6338 273.206,-71.6338"/>
<polygon fill="black" stroke="black" points="273.494,-75.1339 283.494,-71.6338 273.494,-68.1339 273.494,-75.1339"/>
</g>
<!-- filter2 -->
<g id="node9" class="node"><title>filter2</title>
<polygon fill="none" stroke="black" points="516.883,-89.6338 462.883,-89.6338 462.883,-53.6338 516.883,-53.6338 516.883,-89.6338"/>
<text text-anchor="middle" x="489.883" y="-67.4338" font-family="Times,serif" font-size="14.00">Filter</text>
</g>
<!-- disorder_scores&#45;&gt;filter2 -->
<g id="edge7" class="edge"><title>disorder_scores&#45;&gt;filter2</title>
<path fill="none" stroke="black" d="M427.225,-71.6338C436.047,-71.6338 444.759,-71.6338 452.731,-71.6338"/>
<polygon fill="black" stroke="black" points="452.733,-75.1339 462.733,-71.6338 452.733,-68.1339 452.733,-75.1339"/>
</g>
<!-- filtered_up -->
<g id="node10" class="node"><title>filtered_up</title>
<ellipse fill="none" stroke="black" cx="628.258" cy="-71.6338" rx="71.4735" ry="71.4735"/>
<text text-anchor="middle" x="628.258" y="-75.8338" font-family="Times,serif" font-size="14.00">Inferred IDPs</text>
<text text-anchor="middle" x="628.258" y="-59.0338" font-family="Times,serif" font-size="14.00"> from AIUPred</text>
</g>
<!-- filter2&#45;&gt;filtered_up -->
<g id="edge8" class="edge"><title>filter2&#45;&gt;filtered_up</title>
<path fill="none" stroke="black" d="M517.177,-71.6338C525.858,-71.6338 536.018,-71.6338 546.593,-71.6338"/>
<polygon fill="black" stroke="black" points="546.823,-75.1339 556.823,-71.6338 546.823,-68.1339 546.823,-75.1339"/>
</g>
<!-- filtered_up&#45;&gt;compare -->
<g id="edge10" class="edge"><title>filtered_up&#45;&gt;compare</title>
<path fill="none" stroke="black" d="M693.17,-101.935C713.679,-111.658 736.009,-122.244 755.09,-131.291"/>
<polygon fill="black" stroke="black" points="753.639,-134.476 764.174,-135.597 756.637,-128.151 753.639,-134.476"/>
</g>
<!-- decided_idps -->
<g id="node12" class="node"><title>decided_idps</title>
<ellipse fill="none" stroke="black" cx="966.132" cy="-153.634" rx="63.1601" ry="63.1601"/>
<text text-anchor="middle" x="966.132" y="-149.434" font-family="Times,serif" font-size="14.00">IDP Decision</text>
</g>
<!-- compare&#45;&gt;decided_idps -->
<g id="edge11" class="edge"><title>compare&#45;&gt;decided_idps</title>
<path fill="none" stroke="black" d="M866.892,-153.634C875.328,-153.634 884.038,-153.634 892.626,-153.634"/>
<polygon fill="black" stroke="black" points="892.628,-157.134 902.628,-153.634 892.628,-150.134 892.628,-157.134"/>
</g>
<!-- convert -->
<g id="node13" class="node"><title>convert</title>
<polygon fill="none" stroke="black" points="1181.91,-174.236 1065.31,-174.236 1065.31,-133.032 1181.91,-133.032 1181.91,-174.236"/>
<text text-anchor="middle" x="1123.61" y="-157.834" font-family="Times,serif" font-size="14.00">Convert to</text>
<text text-anchor="middle" x="1123.61" y="-141.034" font-family="Times,serif" font-size="14.00">Ensembl Gene ID</text>
</g>
<!-- decided_idps&#45;&gt;convert -->
<g id="edge12" class="edge"><title>decided_idps&#45;&gt;convert</title>
<path fill="none" stroke="black" d="M1029.47,-153.634C1037.88,-153.634 1046.54,-153.634 1055.04,-153.634"/>
<polygon fill="black" stroke="black" points="1055.29,-157.134 1065.29,-153.634 1055.29,-150.134 1055.29,-157.134"/>
</g>
<!-- product -->
<g id="node14" class="node"><title>product</title>
<ellipse fill="none" stroke="black" cx="1284.6" cy="-153.634" rx="66.6843" ry="66.6843"/>
<text text-anchor="middle" x="1284.6" y="-157.834" font-family="Times,serif" font-size="14.00">IDPs with</text>
<text text-anchor="middle" x="1284.6" y="-141.034" font-family="Times,serif" font-size="14.00">Ensembl Acc.</text>
</g>
<!-- convert&#45;&gt;product -->
<g id="edge13" class="edge"><title>convert&#45;&gt;product</title>
<path fill="none" stroke="black" d="M1182.01,-153.634C1190.32,-153.634 1198.98,-153.634 1207.59,-153.634"/>
<polygon fill="black" stroke="black" points="1207.64,-157.134 1217.64,-153.634 1207.64,-150.134 1207.64,-157.134"/>
</g>
</g>
</svg>

