<?xml version="1.0" encoding="UTF-8" standalone="no"?>
<!DOCTYPE svg PUBLIC "-//W3C//DTD SVG 1.1//EN"
 "http://www.w3.org/Graphics/SVG/1.1/DTD/svg11.dtd">
<!-- Generated by graphviz version 2.38.0 (20140413.2041)
 -->
<!-- Title: PetriNet Pages: 1 -->
<svg width="1090pt" height="316pt"
 viewBox="0.00 0.00 1089.59 316.09" xmlns="http://www.w3.org/2000/svg" xmlns:xlink="http://www.w3.org/1999/xlink">
<g id="graph0" class="graph" transform="scale(1 1) rotate(0) translate(4 312.094)">
<title>PetriNet</title>
<polygon fill="white" stroke="none" points="-4,4 -4,-312.094 1085.59,-312.094 1085.59,4 -4,4"/>
<!-- product -->
<g id="node1" class="node"><title>product</title>
<ellipse fill="none" stroke="black" cx="346.773" cy="-230.069" rx="66.6843" ry="66.6843"/>
<text text-anchor="middle" x="346.773" y="-234.269" font-family="Times,serif" font-size="14.00">IDPs with</text>
<text text-anchor="middle" x="346.773" y="-217.469" font-family="Times,serif" font-size="14.00">Ensembl Acc.</text>
</g>
<!-- highlight -->
<g id="node5" class="node"><title>highlight</title>
<polygon fill="none" stroke="black" points="554.996,-172.671 453.669,-172.671 453.669,-131.467 554.996,-131.467 554.996,-172.671"/>
<text text-anchor="start" x="461.751" y="-156.269" font-family="Times,serif" font-size="14.00">Highlight IDPs</text>
<text text-anchor="start" x="476.527" y="-139.469" font-family="Times,serif" font-size="14.00">in Results</text>
</g>
<!-- product&#45;&gt;highlight -->
<g id="edge3" class="edge"><title>product&#45;&gt;highlight</title>
<path fill="none" stroke="black" d="M407.027,-200.358C422.1,-192.801 438.158,-184.749 452.754,-177.43"/>
<polygon fill="black" stroke="black" points="454.739,-180.35 462.11,-172.739 451.602,-174.093 454.739,-180.35"/>
</g>
<!-- counts -->
<g id="node2" class="node"><title>counts</title>
<ellipse fill="none" stroke="black" cx="74.0693" cy="-74.0693" rx="74.1387" ry="74.1387"/>
<text text-anchor="start" x="28.3789" y="-69.8693" font-family="Times,serif" font-size="14.00">RNAseq Counts</text>
</g>
<!-- deseq -->
<g id="node3" class="node"><title>deseq</title>
<polygon fill="none" stroke="black" points="239.624,-92.0693 184.309,-92.0693 184.309,-56.0693 239.624,-56.0693 239.624,-92.0693"/>
<text text-anchor="start" x="192.139" y="-69.8693" font-family="Times,serif" font-size="14.00">DESeq</text>
</g>
<!-- counts&#45;&gt;deseq -->
<g id="edge1" class="edge"><title>counts&#45;&gt;deseq</title>
<path fill="none" stroke="black" d="M148.189,-74.0693C157.101,-74.0693 165.893,-74.0693 173.947,-74.0693"/>
<polygon fill="black" stroke="black" points="174.06,-77.5694 184.06,-74.0693 174.059,-70.5694 174.06,-77.5694"/>
</g>
<!-- ds_results -->
<g id="node4" class="node"><title>ds_results</title>
<ellipse fill="none" stroke="black" cx="346.773" cy="-74.0693" rx="70.9559" ry="70.9559"/>
<text text-anchor="start" x="328.303" y="-76.4693" font-family="Times,serif" font-weight="bold" font-size="14.00">List </text>
<text text-anchor="start" x="353.582" y="-76.4693" font-family="Times,serif" font-size="14.00">of</text>
<text text-anchor="start" x="304.584" y="-62.4693" font-family="Times,serif" font-size="14.00">DESeq Results</text>
</g>
<!-- deseq&#45;&gt;ds_results -->
<g id="edge2" class="edge"><title>deseq&#45;&gt;ds_results</title>
<path fill="none" stroke="black" d="M239.842,-74.0693C247.523,-74.0693 256.314,-74.0693 265.474,-74.0693"/>
<polygon fill="black" stroke="black" points="265.524,-77.5694 275.524,-74.0693 265.524,-70.5694 265.524,-77.5694"/>
</g>
<!-- ds_results&#45;&gt;highlight -->
<g id="edge4" class="edge"><title>ds_results&#45;&gt;highlight</title>
<path fill="none" stroke="black" d="M410.597,-105.57C424.71,-112.647 439.507,-120.066 453.031,-126.847"/>
<polygon fill="black" stroke="black" points="451.659,-130.075 462.167,-131.428 454.797,-123.817 451.659,-130.075"/>
</g>
<!-- sig_idps -->
<g id="node6" class="node"><title>sig_idps</title>
<ellipse fill="none" stroke="black" cx="666.052" cy="-231.069" rx="75.275" ry="75.275"/>
<text text-anchor="start" x="619.587" y="-226.869" font-family="Times,serif" font-size="14.00">Significant IDPs</text>
</g>
<!-- highlight&#45;&gt;sig_idps -->
<g id="edge5" class="edge"><title>highlight&#45;&gt;sig_idps</title>
<path fill="none" stroke="black" d="M547.297,-172.826C560.232,-179.224 574.894,-186.476 589.373,-193.637"/>
<polygon fill="black" stroke="black" points="587.831,-196.779 598.347,-198.076 590.935,-190.505 587.831,-196.779"/>
</g>
<!-- reg -->
<g id="node7" class="node"><title>reg</title>
<ellipse fill="none" stroke="black" cx="666.052" cy="-74.0693" rx="63.6127" ry="63.6127"/>
<text text-anchor="start" x="634.948" y="-86.6693" font-family="Times,serif" font-size="14.00">Expression</text>
<text text-anchor="start" x="644.669" y="-69.8693" font-family="Times,serif" font-size="14.00">Change</text>
<text text-anchor="start" x="629.111" y="-53.0693" font-family="Times,serif" font-size="14.00">Comparisons</text>
</g>
<!-- highlight&#45;&gt;reg -->
<g id="edge6" class="edge"><title>highlight&#45;&gt;reg</title>
<path fill="none" stroke="black" d="M547.715,-131.372C563.612,-123.608 582.072,-114.593 599.578,-106.044"/>
<polygon fill="black" stroke="black" points="601.177,-109.158 608.627,-101.625 598.105,-102.868 601.177,-109.158"/>
</g>
<!-- enrichment -->
<g id="node8" class="node"><title>enrichment</title>
<polygon fill="none" stroke="black" points="891.715,-249.069 777.014,-249.069 777.014,-213.069 891.715,-213.069 891.715,-249.069"/>
<text text-anchor="start" x="785.189" y="-226.869" font-family="Times,serif" font-size="14.00">Gene Enrichment</text>
</g>
<!-- sig_idps&#45;&gt;enrichment -->
<g id="edge7" class="edge"><title>sig_idps&#45;&gt;enrichment</title>
<path fill="none" stroke="black" d="M741.452,-231.069C749.937,-231.069 758.545,-231.069 766.918,-231.069"/>
<polygon fill="black" stroke="black" points="766.989,-234.569 776.989,-231.069 766.989,-227.569 766.989,-234.569"/>
</g>
<!-- fxn -->
<g id="node9" class="node"><title>fxn</title>
<ellipse fill="none" stroke="black" cx="1004.56" cy="-231.069" rx="77.0492" ry="77.0492"/>
<text text-anchor="start" x="969.372" y="-235.269" font-family="Times,serif" font-size="14.00">Functions of</text>
<text text-anchor="start" x="958.099" y="-218.469" font-family="Times,serif" font-size="14.00">Significant IDPs</text>
</g>
<!-- enrichment&#45;&gt;fxn -->
<g id="edge8" class="edge"><title>enrichment&#45;&gt;fxn</title>
<path fill="none" stroke="black" d="M891.84,-231.069C900.071,-231.069 908.7,-231.069 917.359,-231.069"/>
<polygon fill="black" stroke="black" points="917.514,-234.569 927.514,-231.069 917.514,-227.569 917.514,-234.569"/>
</g>
</g>
</svg>

