<?xml version="1.0" encoding="UTF-8" standalone="no"?>
<!DOCTYPE svg PUBLIC "-//W3C//DTD SVG 1.1//EN"
 "http://www.w3.org/Graphics/SVG/1.1/DTD/svg11.dtd">
<!-- Generated by graphviz version 2.38.0 (20140413.2041)
 -->
<!-- Title: PetriNet Pages: 1 -->
<svg width="1806pt" height="634pt"
 viewBox="0.00 0.00 1806.05 634.17" xmlns="http://www.w3.org/2000/svg" xmlns:xlink="http://www.w3.org/1999/xlink">
<g id="graph0" class="graph" transform="scale(1 1) rotate(0) translate(4 630.166)">
<title>PetriNet</title>
<polygon fill="white" stroke="none" points="-4,4 -4,-630.166 1802.05,-630.166 1802.05,4 -4,4"/>
<!-- cif -->
<g id="node1" class="node"><title>cif</title>
<ellipse fill="none" stroke="black" cx="86.3964" cy="-484.28" rx="86.2929" ry="86.2929"/>
<text text-anchor="middle" x="86.3964" y="-480.08" font-family="Times,serif" font-size="14.00">AlphaFold .cif files</text>
</g>
<!-- prep_cif -->
<g id="node2" class="node"><title>prep_cif</title>
<polygon fill="none" stroke="black" points="351.375,-502.28 208.932,-502.28 208.932,-466.28 351.375,-466.28 351.375,-502.28"/>
<text text-anchor="middle" x="280.153" y="-480.08" font-family="Times,serif" font-size="14.00">Extract pLDDT scores</text>
</g>
<!-- cif&#45;&gt;prep_cif -->
<g id="edge1" class="edge"><title>cif&#45;&gt;prep_cif</title>
<path fill="none" stroke="black" d="M172.9,-484.28C181.42,-484.28 190.051,-484.28 198.52,-484.28"/>
<polygon fill="black" stroke="black" points="198.75,-487.78 208.75,-484.28 198.75,-480.78 198.75,-487.78"/>
</g>
<!-- plddt -->
<g id="node3" class="node"><title>plddt</title>
<ellipse fill="none" stroke="black" cx="455.662" cy="-484.28" rx="68.2976" ry="68.2976"/>
<text text-anchor="middle" x="455.662" y="-480.08" font-family="Times,serif" font-size="14.00">pLDDT scores</text>
</g>
<!-- prep_cif&#45;&gt;plddt -->
<g id="edge2" class="edge"><title>prep_cif&#45;&gt;plddt</title>
<path fill="none" stroke="black" d="M351.726,-484.28C360.064,-484.28 368.608,-484.28 377.037,-484.28"/>
<polygon fill="black" stroke="black" points="377.238,-487.78 387.238,-484.28 377.238,-480.78 377.238,-487.78"/>
</g>
<!-- filter -->
<g id="node4" class="node"><title>filter</title>
<polygon fill="none" stroke="black" points="639.823,-502.28 571.616,-502.28 571.616,-466.28 639.823,-466.28 639.823,-502.28"/>
<text text-anchor="middle" x="605.72" y="-480.08" font-family="Times,serif" font-size="14.00">filter &lt;50</text>
</g>
<!-- plddt&#45;&gt;filter -->
<g id="edge3" class="edge"><title>plddt&#45;&gt;filter</title>
<path fill="none" stroke="black" d="M524.192,-484.28C536.805,-484.28 549.671,-484.28 561.311,-484.28"/>
<polygon fill="black" stroke="black" points="561.614,-487.78 571.614,-484.28 561.614,-480.78 561.614,-487.78"/>
</g>
<!-- filtered_cif -->
<g id="node5" class="node"><title>filtered_cif</title>
<ellipse fill="none" stroke="black" cx="849.908" cy="-484.28" rx="141.772" ry="141.772"/>
<text text-anchor="middle" x="849.908" y="-480.08" font-family="Times,serif" font-size="14.00">inferred IDPs &#160;from cif in UP acc.</text>
</g>
<!-- filter&#45;&gt;filtered_cif -->
<g id="edge4" class="edge"><title>filter&#45;&gt;filtered_cif</title>
<path fill="none" stroke="black" d="M639.887,-484.28C655.784,-484.28 676.066,-484.28 697.72,-484.28"/>
<polygon fill="black" stroke="black" points="697.754,-487.78 707.754,-484.28 697.754,-480.78 697.754,-487.78"/>
</g>
<!-- compare -->
<g id="node10" class="node"><title>compare</title>
<polygon fill="none" stroke="black" points="1209.78,-341.28 1047.99,-341.28 1047.99,-305.28 1209.78,-305.28 1209.78,-341.28"/>
<text text-anchor="middle" x="1128.89" y="-319.08" font-family="Times,serif" font-size="14.00">Compare, Intersect/Union</text>
</g>
<!-- filtered_cif&#45;&gt;compare -->
<g id="edge8" class="edge"><title>filtered_cif&#45;&gt;compare</title>
<path fill="none" stroke="black" d="M973.2,-413.194C1014.44,-389.223 1057.62,-364.123 1087.85,-346.554"/>
<polygon fill="black" stroke="black" points="1089.91,-349.404 1096.79,-341.353 1086.39,-343.352 1089.91,-349.404"/>
</g>
<!-- uniprotkb -->
<g id="node6" class="node"><title>uniprotkb</title>
<polygon fill="none" stroke="black" points="348.299,-180.28 212.008,-180.28 212.008,-144.28 348.299,-144.28 348.299,-180.28"/>
<text text-anchor="middle" x="280.153" y="-158.08" font-family="Times,serif" font-size="14.00">UniProtKB proteome</text>
</g>
<!-- aiupred -->
<g id="node7" class="node"><title>aiupred</title>
<ellipse fill="none" stroke="black" cx="455.662" cy="-162.28" rx="45.7848" ry="45.7848"/>
<text text-anchor="middle" x="455.662" y="-158.08" font-family="Times,serif" font-size="14.00">AIUPred</text>
</g>
<!-- uniprotkb&#45;&gt;aiupred -->
<g id="edge5" class="edge"><title>uniprotkb&#45;&gt;aiupred</title>
<path fill="none" stroke="black" d="M348.236,-162.28C365.133,-162.28 383.081,-162.28 399.329,-162.28"/>
<polygon fill="black" stroke="black" points="399.733,-165.78 409.733,-162.28 399.733,-158.78 399.733,-165.78"/>
</g>
<!-- filter2 -->
<g id="node8" class="node"><title>filter2</title>
<polygon fill="none" stroke="black" points="651.537,-180.28 559.902,-180.28 559.902,-144.28 651.537,-144.28 651.537,-180.28"/>
<text text-anchor="middle" x="605.72" y="-158.08" font-family="Times,serif" font-size="14.00">Statistic filter</text>
</g>
<!-- aiupred&#45;&gt;filter2 -->
<g id="edge6" class="edge"><title>aiupred&#45;&gt;filter2</title>
<path fill="none" stroke="black" d="M501.889,-162.28C516.957,-162.28 533.911,-162.28 549.642,-162.28"/>
<polygon fill="black" stroke="black" points="549.77,-165.78 559.77,-162.28 549.77,-158.78 549.77,-165.78"/>
</g>
<!-- filtered_up -->
<g id="node9" class="node"><title>filtered_up</title>
<ellipse fill="none" stroke="black" cx="849.908" cy="-162.28" rx="162.06" ry="162.06"/>
<text text-anchor="middle" x="849.908" y="-158.08" font-family="Times,serif" font-size="14.00">inferred IDPs &#160;from UniProt in UP acc.</text>
</g>
<!-- filter2&#45;&gt;filtered_up -->
<g id="edge7" class="edge"><title>filter2&#45;&gt;filtered_up</title>
<path fill="none" stroke="black" d="M651.706,-162.28C659.642,-162.28 668.312,-162.28 677.447,-162.28"/>
<polygon fill="black" stroke="black" points="677.529,-165.78 687.529,-162.28 677.529,-158.78 677.529,-165.78"/>
</g>
<!-- filtered_up&#45;&gt;compare -->
<g id="edge9" class="edge"><title>filtered_up&#45;&gt;compare</title>
<path fill="none" stroke="black" d="M990.614,-243.487C1026.33,-264.25 1061.94,-284.95 1087.94,-300.061"/>
<polygon fill="black" stroke="black" points="1086.32,-303.165 1096.72,-305.164 1089.83,-297.113 1086.32,-303.165"/>
</g>
<!-- decided_idps -->
<g id="node11" class="node"><title>decided_idps</title>
<ellipse fill="none" stroke="black" cx="1310.52" cy="-323.28" rx="64.8658" ry="64.8658"/>
<text text-anchor="middle" x="1310.52" y="-319.08" font-family="Times,serif" font-size="14.00">Decided IDPs</text>
</g>
<!-- compare&#45;&gt;decided_idps -->
<g id="edge10" class="edge"><title>compare&#45;&gt;decided_idps</title>
<path fill="none" stroke="black" d="M1209.72,-323.28C1218.25,-323.28 1226.9,-323.28 1235.35,-323.28"/>
<polygon fill="black" stroke="black" points="1235.55,-326.78 1245.55,-323.28 1235.55,-319.78 1235.55,-326.78"/>
</g>
<!-- convert -->
<g id="node12" class="node"><title>convert</title>
<polygon fill="none" stroke="black" points="1583.32,-341.28 1411.49,-341.28 1411.49,-305.28 1583.32,-305.28 1583.32,-341.28"/>
<text text-anchor="middle" x="1497.41" y="-319.08" font-family="Times,serif" font-size="14.00">Convert to YEAST gene_id</text>
</g>
<!-- decided_idps&#45;&gt;convert -->
<g id="edge11" class="edge"><title>decided_idps&#45;&gt;convert</title>
<path fill="none" stroke="black" d="M1375.66,-323.28C1383.91,-323.28 1392.49,-323.28 1401.1,-323.28"/>
<polygon fill="black" stroke="black" points="1401.21,-326.78 1411.21,-323.28 1401.21,-319.78 1401.21,-326.78"/>
</g>
<!-- product -->
<g id="node13" class="node"><title>product</title>
<ellipse fill="none" stroke="black" cx="1708.7" cy="-323.28" rx="89.1838" ry="89.1838"/>
<text text-anchor="middle" x="1708.7" y="-319.08" font-family="Times,serif" font-size="14.00">IDPs with SGD acc.</text>
</g>
<!-- convert&#45;&gt;product -->
<g id="edge12" class="edge"><title>convert&#45;&gt;product</title>
<path fill="none" stroke="black" d="M1583.54,-323.28C1592,-323.28 1600.63,-323.28 1609.21,-323.28"/>
<polygon fill="black" stroke="black" points="1609.25,-326.78 1619.25,-323.28 1609.25,-319.78 1609.25,-326.78"/>
</g>
</g>
</svg>

